G04 #@! TF.GenerationSoftware,KiCad,Pcbnew,(7.0.0-0)*
G04 #@! TF.CreationDate,2023-03-10T18:04:30-08:00*
G04 #@! TF.ProjectId,RX7 Headlight Control,52583720-4865-4616-946c-696768742043,rev?*
G04 #@! TF.SameCoordinates,Original*
G04 #@! TF.FileFunction,Copper,L2,Bot*
G04 #@! TF.FilePolarity,Positive*
%FSLAX46Y46*%
G04 Gerber Fmt 4.6, Leading zero omitted, Abs format (unit mm)*
G04 Created by KiCad (PCBNEW (7.0.0-0)) date 2023-03-10 18:04:30*
%MOMM*%
%LPD*%
G01*
G04 APERTURE LIST*
G04 #@! TA.AperFunction,ComponentPad*
%ADD10R,2.200000X2.200000*%
G04 #@! TD*
G04 #@! TA.AperFunction,ComponentPad*
%ADD11O,2.200000X2.200000*%
G04 #@! TD*
G04 #@! TA.AperFunction,ComponentPad*
%ADD12R,2.550000X2.550000*%
G04 #@! TD*
G04 #@! TA.AperFunction,ComponentPad*
%ADD13C,1.650000*%
G04 #@! TD*
G04 #@! TA.AperFunction,ComponentPad*
%ADD14C,2.550000*%
G04 #@! TD*
G04 #@! TA.AperFunction,ComponentPad*
%ADD15C,3.048000*%
G04 #@! TD*
G04 #@! TA.AperFunction,Conductor*
%ADD16C,2.540000*%
G04 #@! TD*
G04 #@! TA.AperFunction,Conductor*
%ADD17C,0.250000*%
G04 #@! TD*
G04 #@! TA.AperFunction,Conductor*
%ADD18C,1.270000*%
G04 #@! TD*
G04 APERTURE END LIST*
D10*
X131444999Y-95884999D03*
D11*
X141604999Y-95884999D03*
D10*
X141604999Y-116839999D03*
D11*
X141604999Y-106679999D03*
D10*
X141604999Y-99694999D03*
D11*
X131444999Y-99694999D03*
D12*
X122069999Y-111759999D03*
D13*
X130470000Y-114160000D03*
D14*
X134470000Y-114160000D03*
X134470000Y-109360000D03*
D13*
X130470000Y-109360000D03*
D15*
X127000000Y-99060000D03*
X121920000Y-99060000D03*
X130810000Y-104775000D03*
X135890000Y-104775000D03*
X118110000Y-99060000D03*
X113030000Y-99060000D03*
X118110000Y-104775000D03*
X113030000Y-104775000D03*
X127000000Y-104775000D03*
X121920000Y-104775000D03*
D16*
X130810000Y-104775000D02*
X135890000Y-104775000D01*
X135890000Y-104775000D02*
X140970000Y-99695000D01*
D17*
X140970000Y-99695000D02*
X141605000Y-99695000D01*
D18*
X130470000Y-114160000D02*
X133150000Y-116840000D01*
X119889868Y-114300000D02*
X130330000Y-114300000D01*
X118110000Y-112520132D02*
X119889868Y-114300000D01*
X130330000Y-114300000D02*
X130470000Y-114160000D01*
X118110000Y-104775000D02*
X118110000Y-112520132D01*
X118110000Y-104775000D02*
X113030000Y-104775000D01*
X133150000Y-116840000D02*
X141605000Y-116840000D01*
D17*
X122070000Y-104925000D02*
X121920000Y-104775000D01*
D16*
X127000000Y-104775000D02*
X127000000Y-103822500D01*
X122070000Y-111125000D02*
X122070000Y-104925000D01*
X131127500Y-99695000D02*
X131445000Y-99695000D01*
X121920000Y-104775000D02*
X127000000Y-104775000D01*
X131445000Y-99695000D02*
X131445000Y-95885000D01*
X127000000Y-103822500D02*
X131127500Y-99695000D01*
G04 #@! TA.AperFunction,Conductor*
G36*
X120649547Y-87630215D02*
G01*
X120649617Y-87630383D01*
X120650000Y-87630541D01*
X120650099Y-87630500D01*
X133349901Y-87630500D01*
X133350000Y-87630541D01*
X133350383Y-87630383D01*
X133350452Y-87630215D01*
X133352650Y-87630000D01*
X146046249Y-87630000D01*
X146053736Y-87630226D01*
X146348678Y-87648066D01*
X146363541Y-87649871D01*
X146650489Y-87702457D01*
X146665027Y-87706041D01*
X146790211Y-87745049D01*
X146943533Y-87792826D01*
X146957529Y-87798135D01*
X147223557Y-87917865D01*
X147236816Y-87924823D01*
X147361640Y-88000281D01*
X147486471Y-88075744D01*
X147498782Y-88084242D01*
X147728430Y-88264159D01*
X147739638Y-88274089D01*
X147945910Y-88480361D01*
X147955840Y-88491569D01*
X148135753Y-88721211D01*
X148144259Y-88733534D01*
X148295176Y-88983183D01*
X148302134Y-88996442D01*
X148421864Y-89262470D01*
X148427174Y-89276471D01*
X148513958Y-89554972D01*
X148517542Y-89569510D01*
X148570128Y-89856458D01*
X148571933Y-89871323D01*
X148589774Y-90166264D01*
X148590000Y-90173751D01*
X148590000Y-99057350D01*
X148589784Y-99059547D01*
X148589617Y-99059617D01*
X148589459Y-99060000D01*
X148589500Y-99060099D01*
X148589500Y-109219901D01*
X148589459Y-109220000D01*
X148589500Y-109220099D01*
X148589617Y-109220383D01*
X148589776Y-109220448D01*
X148590000Y-109222720D01*
X148590000Y-118106249D01*
X148589774Y-118113736D01*
X148571933Y-118408676D01*
X148570128Y-118423541D01*
X148517542Y-118710489D01*
X148513958Y-118725027D01*
X148427174Y-119003528D01*
X148421864Y-119017529D01*
X148302134Y-119283557D01*
X148295176Y-119296816D01*
X148144259Y-119546465D01*
X148135753Y-119558788D01*
X147955840Y-119788430D01*
X147945910Y-119799638D01*
X147739638Y-120005910D01*
X147728430Y-120015840D01*
X147498788Y-120195753D01*
X147486465Y-120204259D01*
X147236816Y-120355176D01*
X147223557Y-120362134D01*
X146957529Y-120481864D01*
X146943528Y-120487174D01*
X146665027Y-120573958D01*
X146650489Y-120577542D01*
X146363541Y-120630128D01*
X146348676Y-120631933D01*
X146053736Y-120649774D01*
X146046249Y-120650000D01*
X139702720Y-120650000D01*
X139700448Y-120649776D01*
X139700383Y-120649617D01*
X139700099Y-120649500D01*
X139700000Y-120649459D01*
X139699901Y-120649500D01*
X132080099Y-120649500D01*
X132080000Y-120649459D01*
X132079901Y-120649500D01*
X132079617Y-120649617D01*
X132079551Y-120649776D01*
X132077280Y-120650000D01*
X121922720Y-120650000D01*
X121920448Y-120649776D01*
X121920383Y-120649617D01*
X121920099Y-120649500D01*
X121920000Y-120649459D01*
X121919901Y-120649500D01*
X114300099Y-120649500D01*
X114300000Y-120649459D01*
X114299901Y-120649500D01*
X114299617Y-120649617D01*
X114299551Y-120649776D01*
X114297280Y-120650000D01*
X107953751Y-120650000D01*
X107946264Y-120649774D01*
X107651323Y-120631933D01*
X107636458Y-120630128D01*
X107349510Y-120577542D01*
X107334972Y-120573958D01*
X107056471Y-120487174D01*
X107042470Y-120481864D01*
X106776442Y-120362134D01*
X106763183Y-120355176D01*
X106513534Y-120204259D01*
X106501211Y-120195753D01*
X106271569Y-120015840D01*
X106260361Y-120005910D01*
X106054089Y-119799638D01*
X106044159Y-119788430D01*
X105864246Y-119558788D01*
X105855744Y-119546471D01*
X105780281Y-119421640D01*
X105704823Y-119296816D01*
X105697865Y-119283557D01*
X105578135Y-119017529D01*
X105572825Y-119003528D01*
X105486041Y-118725027D01*
X105482457Y-118710489D01*
X105429871Y-118423541D01*
X105428066Y-118408676D01*
X105410226Y-118113736D01*
X105410000Y-118106249D01*
X105410000Y-109222720D01*
X105410223Y-109220448D01*
X105410383Y-109220383D01*
X105410500Y-109220099D01*
X105410541Y-109220000D01*
X105410500Y-109219901D01*
X105410500Y-104775000D01*
X110992751Y-104775000D01*
X111011726Y-105052405D01*
X111012587Y-105056552D01*
X111012589Y-105056561D01*
X111045590Y-105215368D01*
X111068298Y-105324643D01*
X111069716Y-105328635D01*
X111069719Y-105328643D01*
X111159991Y-105582645D01*
X111161412Y-105586642D01*
X111163359Y-105590400D01*
X111163361Y-105590404D01*
X111287385Y-105829759D01*
X111289335Y-105833522D01*
X111449683Y-106060683D01*
X111639469Y-106263895D01*
X111855159Y-106439371D01*
X112092733Y-106583843D01*
X112347767Y-106694620D01*
X112558327Y-106753616D01*
X112611429Y-106768495D01*
X112611431Y-106768495D01*
X112615509Y-106769638D01*
X112890973Y-106807500D01*
X113164790Y-106807500D01*
X113169027Y-106807500D01*
X113444491Y-106769638D01*
X113712233Y-106694620D01*
X113967267Y-106583843D01*
X114204841Y-106439371D01*
X114420531Y-106263895D01*
X114610317Y-106060683D01*
X114673627Y-105970992D01*
X114717884Y-105932402D01*
X114774932Y-105918500D01*
X116365068Y-105918500D01*
X116422116Y-105932402D01*
X116466372Y-105970992D01*
X116529683Y-106060683D01*
X116719469Y-106263895D01*
X116722750Y-106266564D01*
X116722753Y-106266567D01*
X116920755Y-106427653D01*
X116954481Y-106470585D01*
X116966500Y-106523841D01*
X116966500Y-112490849D01*
X116966368Y-112496576D01*
X116963091Y-112567440D01*
X116963091Y-112567449D01*
X116962827Y-112573169D01*
X116963618Y-112578845D01*
X116963619Y-112578851D01*
X116973418Y-112649106D01*
X116974078Y-112654791D01*
X116980626Y-112725448D01*
X116980627Y-112725453D01*
X116981155Y-112731150D01*
X116982720Y-112736654D01*
X116982722Y-112736660D01*
X116986073Y-112748437D01*
X116989616Y-112765233D01*
X116991309Y-112777371D01*
X116991312Y-112777385D01*
X116992104Y-112783059D01*
X116993925Y-112788493D01*
X116993927Y-112788500D01*
X117016479Y-112855787D01*
X117018173Y-112861257D01*
X117029933Y-112902589D01*
X117039150Y-112934982D01*
X117041702Y-112940108D01*
X117041704Y-112940112D01*
X117047162Y-112951072D01*
X117053733Y-112966936D01*
X117059451Y-112983994D01*
X117062237Y-112988995D01*
X117062238Y-112988998D01*
X117096769Y-113050991D01*
X117099417Y-113056014D01*
X117133611Y-113124686D01*
X117137064Y-113129258D01*
X117137068Y-113129265D01*
X117144451Y-113139042D01*
X117153823Y-113153424D01*
X117162574Y-113169134D01*
X117166237Y-113173545D01*
X117211561Y-113228127D01*
X117215114Y-113232613D01*
X117261323Y-113293803D01*
X117265559Y-113297664D01*
X117265563Y-113297669D01*
X117317988Y-113345460D01*
X117322131Y-113349416D01*
X119060592Y-115087878D01*
X119064548Y-115092021D01*
X119112330Y-115144436D01*
X119112334Y-115144440D01*
X119116197Y-115148677D01*
X119177391Y-115194888D01*
X119181865Y-115198433D01*
X119232789Y-115240719D01*
X119240866Y-115247426D01*
X119245874Y-115250215D01*
X119245875Y-115250216D01*
X119256574Y-115256176D01*
X119270957Y-115265548D01*
X119278265Y-115271066D01*
X119285314Y-115276389D01*
X119290442Y-115278942D01*
X119290443Y-115278943D01*
X119353976Y-115310579D01*
X119359018Y-115313236D01*
X119426006Y-115350548D01*
X119431441Y-115352369D01*
X119431449Y-115352373D01*
X119443056Y-115356263D01*
X119458919Y-115362833D01*
X119475018Y-115370850D01*
X119480529Y-115372418D01*
X119480537Y-115372421D01*
X119548773Y-115391836D01*
X119554245Y-115393530D01*
X119621029Y-115415913D01*
X119626941Y-115417895D01*
X119644759Y-115420380D01*
X119661544Y-115423920D01*
X119678850Y-115428845D01*
X119755224Y-115435921D01*
X119760847Y-115436573D01*
X119836830Y-115447173D01*
X119913422Y-115443632D01*
X119919150Y-115443500D01*
X130084984Y-115443500D01*
X130132437Y-115452939D01*
X130172665Y-115479819D01*
X132320724Y-117627878D01*
X132324680Y-117632021D01*
X132372462Y-117684436D01*
X132372466Y-117684440D01*
X132376329Y-117688677D01*
X132437523Y-117734888D01*
X132441997Y-117738433D01*
X132496584Y-117783761D01*
X132500998Y-117787426D01*
X132506006Y-117790215D01*
X132506007Y-117790216D01*
X132516706Y-117796176D01*
X132531089Y-117805548D01*
X132538397Y-117811066D01*
X132545446Y-117816389D01*
X132550574Y-117818942D01*
X132550575Y-117818943D01*
X132614108Y-117850579D01*
X132619150Y-117853236D01*
X132686138Y-117890548D01*
X132691573Y-117892369D01*
X132691581Y-117892373D01*
X132703188Y-117896263D01*
X132719051Y-117902833D01*
X132735150Y-117910850D01*
X132740661Y-117912418D01*
X132740669Y-117912421D01*
X132808905Y-117931836D01*
X132814377Y-117933530D01*
X132881161Y-117955913D01*
X132887073Y-117957895D01*
X132904891Y-117960380D01*
X132921676Y-117963920D01*
X132938982Y-117968845D01*
X133015358Y-117975921D01*
X133020976Y-117976572D01*
X133096963Y-117987173D01*
X133173555Y-117983632D01*
X133179283Y-117983500D01*
X139892411Y-117983500D01*
X139941224Y-117993512D01*
X139982154Y-118021930D01*
X140008592Y-118064164D01*
X140054111Y-118186204D01*
X140141739Y-118303261D01*
X140258796Y-118390889D01*
X140395799Y-118441989D01*
X140456362Y-118448500D01*
X142750328Y-118448500D01*
X142753638Y-118448500D01*
X142814201Y-118441989D01*
X142951204Y-118390889D01*
X143068261Y-118303261D01*
X143155889Y-118186204D01*
X143206989Y-118049201D01*
X143213500Y-117988638D01*
X143213500Y-115691362D01*
X143206989Y-115630799D01*
X143155889Y-115493796D01*
X143068261Y-115376739D01*
X143060394Y-115370850D01*
X142958304Y-115294426D01*
X142958303Y-115294425D01*
X142951204Y-115289111D01*
X142942896Y-115286012D01*
X142942894Y-115286011D01*
X142821463Y-115240719D01*
X142821458Y-115240717D01*
X142814201Y-115238011D01*
X142806497Y-115237182D01*
X142806494Y-115237182D01*
X142756924Y-115231853D01*
X142756918Y-115231852D01*
X142753638Y-115231500D01*
X140456362Y-115231500D01*
X140453082Y-115231852D01*
X140453075Y-115231853D01*
X140403505Y-115237182D01*
X140403500Y-115237182D01*
X140395799Y-115238011D01*
X140388543Y-115240717D01*
X140388536Y-115240719D01*
X140267105Y-115286011D01*
X140267099Y-115286013D01*
X140258796Y-115289111D01*
X140251698Y-115294423D01*
X140251695Y-115294426D01*
X140148835Y-115371426D01*
X140148831Y-115371429D01*
X140141739Y-115376739D01*
X140136429Y-115383831D01*
X140136426Y-115383835D01*
X140059426Y-115486695D01*
X140059423Y-115486698D01*
X140054111Y-115493796D01*
X140051013Y-115502099D01*
X140051011Y-115502105D01*
X140008593Y-115615834D01*
X139982154Y-115658070D01*
X139941224Y-115686488D01*
X139892411Y-115696500D01*
X135752122Y-115696500D01*
X135695002Y-115682561D01*
X135650725Y-115643876D01*
X135629244Y-115589145D01*
X135635390Y-115530671D01*
X135667781Y-115481601D01*
X135682732Y-115467727D01*
X135781064Y-115376490D01*
X135947729Y-115167498D01*
X136081384Y-114936002D01*
X136179043Y-114687170D01*
X136238525Y-114426562D01*
X136258501Y-114160000D01*
X136238525Y-113893438D01*
X136179043Y-113632830D01*
X136081384Y-113383998D01*
X135993984Y-113232617D01*
X135950049Y-113156520D01*
X135950047Y-113156518D01*
X135947729Y-113152502D01*
X135781064Y-112943510D01*
X135585112Y-112761694D01*
X135581285Y-112759084D01*
X135581279Y-112759080D01*
X135368092Y-112613732D01*
X135364251Y-112611113D01*
X135360070Y-112609099D01*
X135360064Y-112609096D01*
X135127591Y-112497143D01*
X135127590Y-112497142D01*
X135123413Y-112495131D01*
X135118991Y-112493767D01*
X135118981Y-112493763D01*
X134872409Y-112417706D01*
X134872403Y-112417704D01*
X134867979Y-112416340D01*
X134863403Y-112415650D01*
X134863393Y-112415648D01*
X134608240Y-112377191D01*
X134608239Y-112377190D01*
X134603655Y-112376500D01*
X134336345Y-112376500D01*
X134331761Y-112377190D01*
X134331759Y-112377191D01*
X134076606Y-112415648D01*
X134076594Y-112415650D01*
X134072021Y-112416340D01*
X134067599Y-112417703D01*
X134067590Y-112417706D01*
X133821018Y-112493763D01*
X133821003Y-112493768D01*
X133816587Y-112495131D01*
X133812413Y-112497140D01*
X133812408Y-112497143D01*
X133579935Y-112609097D01*
X133579928Y-112609100D01*
X133575750Y-112611113D01*
X133571917Y-112613726D01*
X133571914Y-112613728D01*
X133511686Y-112654791D01*
X133354888Y-112761694D01*
X133351496Y-112764840D01*
X133351490Y-112764846D01*
X133168127Y-112934982D01*
X133158936Y-112943510D01*
X133156047Y-112947132D01*
X133156043Y-112947137D01*
X132997530Y-113145907D01*
X132992271Y-113152502D01*
X132989957Y-113156508D01*
X132989950Y-113156520D01*
X132860937Y-113379976D01*
X132860931Y-113379987D01*
X132858616Y-113383998D01*
X132856923Y-113388311D01*
X132856918Y-113388322D01*
X132762653Y-113628507D01*
X132762650Y-113628514D01*
X132760957Y-113632830D01*
X132759925Y-113637348D01*
X132759924Y-113637354D01*
X132702506Y-113888916D01*
X132702503Y-113888930D01*
X132701475Y-113893438D01*
X132681499Y-114160000D01*
X132701475Y-114426562D01*
X132702505Y-114431078D01*
X132702507Y-114431086D01*
X132708547Y-114457548D01*
X132706417Y-114520803D01*
X132673348Y-114574767D01*
X132617954Y-114605382D01*
X132554667Y-114604671D01*
X132499975Y-114572821D01*
X131787429Y-113860275D01*
X131755335Y-113804687D01*
X131729268Y-113707403D01*
X131727867Y-113702174D01*
X131629256Y-113490703D01*
X131495422Y-113299568D01*
X131330432Y-113134578D01*
X131211057Y-113050991D01*
X131143736Y-113003852D01*
X131143734Y-113003850D01*
X131139297Y-113000744D01*
X131066798Y-112966937D01*
X130932732Y-112904420D01*
X130932725Y-112904417D01*
X130927826Y-112902133D01*
X130922599Y-112900732D01*
X130922598Y-112900732D01*
X130775275Y-112861257D01*
X130702444Y-112841742D01*
X130697052Y-112841270D01*
X130697045Y-112841269D01*
X130475395Y-112821878D01*
X130470000Y-112821406D01*
X130464605Y-112821878D01*
X130242954Y-112841269D01*
X130242945Y-112841270D01*
X130237556Y-112841742D01*
X130232324Y-112843143D01*
X130232323Y-112843144D01*
X130017401Y-112900732D01*
X130017396Y-112900733D01*
X130012174Y-112902133D01*
X130007278Y-112904415D01*
X130007267Y-112904420D01*
X129805613Y-112998454D01*
X129805609Y-112998456D01*
X129800703Y-113000744D01*
X129796270Y-113003847D01*
X129796263Y-113003852D01*
X129610286Y-113134075D01*
X129576450Y-113150761D01*
X129539163Y-113156500D01*
X123977500Y-113156500D01*
X123915500Y-113139887D01*
X123870113Y-113094500D01*
X123853500Y-113032500D01*
X123853500Y-110980852D01*
X133750975Y-110980852D01*
X133759775Y-110988075D01*
X133815518Y-111014919D01*
X133824138Y-111018302D01*
X134069481Y-111093980D01*
X134078507Y-111096040D01*
X134332396Y-111134308D01*
X134341619Y-111135000D01*
X134598381Y-111135000D01*
X134607603Y-111134308D01*
X134861492Y-111096040D01*
X134870518Y-111093980D01*
X135115861Y-111018302D01*
X135124481Y-111014919D01*
X135180223Y-110988075D01*
X135189024Y-110980852D01*
X135183101Y-110971127D01*
X134481542Y-110269568D01*
X134470000Y-110262904D01*
X134458457Y-110269568D01*
X133756896Y-110971128D01*
X133750975Y-110980852D01*
X123853500Y-110980852D01*
X123853500Y-110630086D01*
X130102163Y-110630086D01*
X130112160Y-110635858D01*
X130233810Y-110668453D01*
X130244427Y-110670325D01*
X130464605Y-110689589D01*
X130475395Y-110689589D01*
X130695572Y-110670325D01*
X130706189Y-110668453D01*
X130827838Y-110635858D01*
X130837835Y-110630086D01*
X130832063Y-110620089D01*
X130481542Y-110269568D01*
X130470000Y-110262904D01*
X130458456Y-110269569D01*
X130107934Y-110620090D01*
X130102163Y-110630086D01*
X123853500Y-110630086D01*
X123853500Y-110439672D01*
X123853500Y-110436362D01*
X123849210Y-110396458D01*
X123848500Y-110383203D01*
X123848500Y-109365395D01*
X129140411Y-109365395D01*
X129159674Y-109585572D01*
X129161546Y-109596189D01*
X129194140Y-109717838D01*
X129199912Y-109727835D01*
X129209909Y-109722063D01*
X129560431Y-109371542D01*
X129567095Y-109360000D01*
X131372904Y-109360000D01*
X131379568Y-109371542D01*
X131730089Y-109722063D01*
X131740086Y-109727835D01*
X131745858Y-109717838D01*
X131778453Y-109596189D01*
X131780325Y-109585572D01*
X131799589Y-109365395D01*
X131799589Y-109364630D01*
X132690370Y-109364630D01*
X132709557Y-109620663D01*
X132710936Y-109629816D01*
X132768067Y-109880125D01*
X132770800Y-109888985D01*
X132841875Y-110070081D01*
X132848567Y-110079420D01*
X132858434Y-110073538D01*
X133560431Y-109371542D01*
X133567095Y-109360000D01*
X135372904Y-109360000D01*
X135379568Y-109371542D01*
X136081564Y-110073538D01*
X136091430Y-110079420D01*
X136098123Y-110070080D01*
X136169203Y-109888975D01*
X136171930Y-109880133D01*
X136229063Y-109629816D01*
X136230442Y-109620663D01*
X136249630Y-109364630D01*
X136249630Y-109355370D01*
X136230442Y-109099336D01*
X136229063Y-109090183D01*
X136171932Y-108839874D01*
X136169199Y-108831014D01*
X136098123Y-108649917D01*
X136091431Y-108640578D01*
X136081564Y-108646460D01*
X135379568Y-109348457D01*
X135372904Y-109360000D01*
X133567095Y-109360000D01*
X133560431Y-109348457D01*
X132858434Y-108646460D01*
X132848568Y-108640578D01*
X132841875Y-108649918D01*
X132770800Y-108831014D01*
X132768067Y-108839874D01*
X132710936Y-109090183D01*
X132709557Y-109099336D01*
X132690370Y-109355370D01*
X132690370Y-109364630D01*
X131799589Y-109364630D01*
X131799589Y-109354605D01*
X131780325Y-109134427D01*
X131778453Y-109123810D01*
X131745858Y-109002160D01*
X131740086Y-108992163D01*
X131730090Y-108997934D01*
X131379569Y-109348456D01*
X131372904Y-109360000D01*
X129567095Y-109360000D01*
X129560431Y-109348457D01*
X129209909Y-108997935D01*
X129199912Y-108992163D01*
X129194141Y-109002160D01*
X129161547Y-109123806D01*
X129159674Y-109134430D01*
X129140411Y-109354605D01*
X129140411Y-109365395D01*
X123848500Y-109365395D01*
X123848500Y-108089912D01*
X130102163Y-108089912D01*
X130107935Y-108099909D01*
X130458457Y-108450431D01*
X130470000Y-108457095D01*
X130481542Y-108450431D01*
X130832063Y-108099909D01*
X130837835Y-108089912D01*
X130827838Y-108084140D01*
X130706189Y-108051546D01*
X130695572Y-108049674D01*
X130475395Y-108030411D01*
X130464605Y-108030411D01*
X130244430Y-108049674D01*
X130233806Y-108051547D01*
X130112160Y-108084141D01*
X130102163Y-108089912D01*
X123848500Y-108089912D01*
X123848500Y-107739145D01*
X133750974Y-107739145D01*
X133756897Y-107748871D01*
X134458457Y-108450431D01*
X134470000Y-108457095D01*
X134481542Y-108450431D01*
X135183101Y-107748871D01*
X135189024Y-107739145D01*
X135180224Y-107731924D01*
X135124482Y-107705080D01*
X135115862Y-107701697D01*
X134870518Y-107626019D01*
X134861492Y-107623959D01*
X134607603Y-107585691D01*
X134598381Y-107585000D01*
X134341619Y-107585000D01*
X134332396Y-107585691D01*
X134078507Y-107623959D01*
X134069481Y-107626019D01*
X133824130Y-107701699D01*
X133815529Y-107705074D01*
X133759773Y-107731924D01*
X133750974Y-107739145D01*
X123848500Y-107739145D01*
X123848500Y-107317786D01*
X140140368Y-107317786D01*
X140142051Y-107329130D01*
X140173115Y-107404126D01*
X140177529Y-107412789D01*
X140304022Y-107619208D01*
X140309734Y-107627070D01*
X140466969Y-107811169D01*
X140473830Y-107818030D01*
X140657929Y-107975265D01*
X140665791Y-107980977D01*
X140872210Y-108107470D01*
X140880873Y-108111884D01*
X140955869Y-108142948D01*
X140967213Y-108144631D01*
X140970000Y-108133507D01*
X142240000Y-108133507D01*
X142242786Y-108144631D01*
X142254130Y-108142948D01*
X142329126Y-108111884D01*
X142337789Y-108107470D01*
X142544208Y-107980977D01*
X142552070Y-107975265D01*
X142736169Y-107818030D01*
X142743030Y-107811169D01*
X142900265Y-107627070D01*
X142905977Y-107619208D01*
X143032470Y-107412789D01*
X143036884Y-107404126D01*
X143067948Y-107329130D01*
X143069631Y-107317786D01*
X143058507Y-107315000D01*
X142256326Y-107315000D01*
X142243450Y-107318450D01*
X142240000Y-107331326D01*
X142240000Y-108133507D01*
X140970000Y-108133507D01*
X140970000Y-107331326D01*
X140966549Y-107318450D01*
X140953674Y-107315000D01*
X140151493Y-107315000D01*
X140140368Y-107317786D01*
X123848500Y-107317786D01*
X123848500Y-106677500D01*
X123865113Y-106615500D01*
X123910500Y-106570113D01*
X123972500Y-106553500D01*
X125978093Y-106553500D01*
X126042521Y-106571552D01*
X126062733Y-106583843D01*
X126317767Y-106694620D01*
X126528327Y-106753616D01*
X126581429Y-106768495D01*
X126581431Y-106768495D01*
X126585509Y-106769638D01*
X126860973Y-106807500D01*
X127134790Y-106807500D01*
X127139027Y-106807500D01*
X127414491Y-106769638D01*
X127682233Y-106694620D01*
X127937267Y-106583843D01*
X128174841Y-106439371D01*
X128390531Y-106263895D01*
X128580317Y-106060683D01*
X128740665Y-105833522D01*
X128794902Y-105728848D01*
X128840572Y-105679949D01*
X128905000Y-105661897D01*
X128969428Y-105679949D01*
X129015097Y-105728848D01*
X129069335Y-105833522D01*
X129229683Y-106060683D01*
X129419469Y-106263895D01*
X129635159Y-106439371D01*
X129872733Y-106583843D01*
X130127767Y-106694620D01*
X130338327Y-106753616D01*
X130391429Y-106768495D01*
X130391431Y-106768495D01*
X130395509Y-106769638D01*
X130670973Y-106807500D01*
X130944790Y-106807500D01*
X130949027Y-106807500D01*
X131224491Y-106769638D01*
X131492233Y-106694620D01*
X131747267Y-106583843D01*
X131767478Y-106571552D01*
X131831907Y-106553500D01*
X134868093Y-106553500D01*
X134932521Y-106571552D01*
X134952733Y-106583843D01*
X135207767Y-106694620D01*
X135418327Y-106753616D01*
X135471429Y-106768495D01*
X135471431Y-106768495D01*
X135475509Y-106769638D01*
X135750973Y-106807500D01*
X136024790Y-106807500D01*
X136029027Y-106807500D01*
X136304491Y-106769638D01*
X136572233Y-106694620D01*
X136827267Y-106583843D01*
X137064841Y-106439371D01*
X137280531Y-106263895D01*
X137470317Y-106060683D01*
X137483355Y-106042213D01*
X140140368Y-106042213D01*
X140151493Y-106045000D01*
X140953674Y-106045000D01*
X140966549Y-106041549D01*
X140970000Y-106028674D01*
X142240000Y-106028674D01*
X142243450Y-106041549D01*
X142256326Y-106045000D01*
X143058507Y-106045000D01*
X143069631Y-106042213D01*
X143067948Y-106030869D01*
X143036884Y-105955873D01*
X143032470Y-105947210D01*
X142905977Y-105740791D01*
X142900265Y-105732929D01*
X142743030Y-105548830D01*
X142736169Y-105541969D01*
X142552070Y-105384734D01*
X142544208Y-105379022D01*
X142337789Y-105252529D01*
X142329126Y-105248115D01*
X142254130Y-105217051D01*
X142242786Y-105215368D01*
X142240000Y-105226493D01*
X142240000Y-106028674D01*
X140970000Y-106028674D01*
X140970000Y-105226493D01*
X140967213Y-105215368D01*
X140955869Y-105217051D01*
X140880873Y-105248115D01*
X140872210Y-105252529D01*
X140665791Y-105379022D01*
X140657929Y-105384734D01*
X140473830Y-105541969D01*
X140466969Y-105548830D01*
X140309734Y-105732929D01*
X140304022Y-105740791D01*
X140177529Y-105947210D01*
X140173115Y-105955873D01*
X140142051Y-106030869D01*
X140140368Y-106042213D01*
X137483355Y-106042213D01*
X137630665Y-105833522D01*
X137758588Y-105586642D01*
X137840218Y-105356953D01*
X137869373Y-105310804D01*
X141840359Y-101339819D01*
X141880588Y-101312939D01*
X141928041Y-101303500D01*
X142750328Y-101303500D01*
X142753638Y-101303500D01*
X142814201Y-101296989D01*
X142951204Y-101245889D01*
X143068261Y-101158261D01*
X143155889Y-101041204D01*
X143206989Y-100904201D01*
X143213500Y-100843638D01*
X143213500Y-98546362D01*
X143206989Y-98485799D01*
X143155889Y-98348796D01*
X143068261Y-98231739D01*
X143002620Y-98182601D01*
X142958304Y-98149426D01*
X142958303Y-98149425D01*
X142951204Y-98144111D01*
X142942896Y-98141012D01*
X142942894Y-98141011D01*
X142821463Y-98095719D01*
X142821458Y-98095717D01*
X142814201Y-98093011D01*
X142806497Y-98092182D01*
X142806494Y-98092182D01*
X142756924Y-98086853D01*
X142756918Y-98086852D01*
X142753638Y-98086500D01*
X142750328Y-98086500D01*
X141763484Y-98086500D01*
X141705543Y-98072130D01*
X141687305Y-98062491D01*
X141687299Y-98062488D01*
X141683202Y-98060323D01*
X141678830Y-98058793D01*
X141435972Y-97973813D01*
X141435966Y-97973811D01*
X141431601Y-97972284D01*
X141427057Y-97971424D01*
X141427045Y-97971421D01*
X141174244Y-97923589D01*
X141174240Y-97923588D01*
X141169687Y-97922727D01*
X141165058Y-97922553D01*
X141165051Y-97922553D01*
X140907950Y-97912934D01*
X140907943Y-97912934D01*
X140903314Y-97912761D01*
X140898710Y-97913279D01*
X140898702Y-97913280D01*
X140643039Y-97942085D01*
X140643031Y-97942086D01*
X140638429Y-97942605D01*
X140633962Y-97943801D01*
X140633951Y-97943804D01*
X140385429Y-98010396D01*
X140385424Y-98010397D01*
X140380952Y-98011596D01*
X140376708Y-98013447D01*
X140376701Y-98013450D01*
X140140884Y-98116335D01*
X140140874Y-98116340D01*
X140136632Y-98118191D01*
X140132715Y-98120652D01*
X140132704Y-98120658D01*
X139914861Y-98257538D01*
X139914848Y-98257547D01*
X139910929Y-98260010D01*
X139907412Y-98263036D01*
X139907406Y-98263041D01*
X139761226Y-98388839D01*
X139761205Y-98388858D01*
X139759466Y-98390355D01*
X139757834Y-98391986D01*
X139757821Y-98391999D01*
X135351138Y-102798681D01*
X135296913Y-102830401D01*
X135211848Y-102854235D01*
X135211827Y-102854242D01*
X135207767Y-102855380D01*
X135203900Y-102857059D01*
X135203885Y-102857065D01*
X134956616Y-102964470D01*
X134956611Y-102964472D01*
X134952733Y-102966157D01*
X134949122Y-102968352D01*
X134949114Y-102968357D01*
X134932521Y-102978448D01*
X134868093Y-102996500D01*
X131831907Y-102996500D01*
X131767479Y-102978448D01*
X131750885Y-102968357D01*
X131750883Y-102968356D01*
X131747267Y-102966157D01*
X131725011Y-102956490D01*
X131496114Y-102857065D01*
X131496104Y-102857061D01*
X131492233Y-102855380D01*
X131488161Y-102854239D01*
X131228570Y-102781504D01*
X131228557Y-102781501D01*
X131224491Y-102780362D01*
X131220304Y-102779786D01*
X131220292Y-102779784D01*
X130953224Y-102743076D01*
X130953211Y-102743075D01*
X130949027Y-102742500D01*
X130894540Y-102742500D01*
X130838245Y-102728985D01*
X130794222Y-102691385D01*
X130772067Y-102637898D01*
X130776609Y-102580182D01*
X130806859Y-102530819D01*
X130806859Y-102530818D01*
X131903625Y-101434052D01*
X131961812Y-101401898D01*
X131961736Y-101401651D01*
X131962922Y-101401285D01*
X131963723Y-101400842D01*
X131970692Y-101399252D01*
X132028509Y-101376559D01*
X132037228Y-101373508D01*
X132096581Y-101355201D01*
X132152529Y-101328257D01*
X132161003Y-101324559D01*
X132218826Y-101301866D01*
X132272606Y-101270815D01*
X132280779Y-101266495D01*
X132336743Y-101239545D01*
X132388050Y-101204563D01*
X132395877Y-101199644D01*
X132449674Y-101168586D01*
X132498237Y-101129857D01*
X132505667Y-101124374D01*
X132556986Y-101089386D01*
X132602520Y-101047135D01*
X132609521Y-101041111D01*
X132658079Y-101002388D01*
X132700330Y-100956851D01*
X132706851Y-100950330D01*
X132752388Y-100908079D01*
X132791111Y-100859521D01*
X132797135Y-100852520D01*
X132839386Y-100806986D01*
X132874368Y-100755677D01*
X132879876Y-100748214D01*
X132897132Y-100726576D01*
X132918586Y-100699674D01*
X132949634Y-100645894D01*
X132954565Y-100638048D01*
X132989545Y-100586744D01*
X133016488Y-100530793D01*
X133020823Y-100522593D01*
X133049545Y-100472846D01*
X133049544Y-100472846D01*
X133051866Y-100468826D01*
X133074550Y-100411025D01*
X133078248Y-100402547D01*
X133105201Y-100346581D01*
X133123508Y-100287228D01*
X133126559Y-100278509D01*
X133149252Y-100220692D01*
X133163078Y-100160113D01*
X133165470Y-100151191D01*
X133182401Y-100096305D01*
X133182401Y-100096302D01*
X133183771Y-100091863D01*
X133193024Y-100030467D01*
X133194747Y-100021360D01*
X133208567Y-99960815D01*
X133213208Y-99898880D01*
X133214240Y-99889709D01*
X133223500Y-99828280D01*
X133223500Y-99561720D01*
X133223500Y-96522786D01*
X140140368Y-96522786D01*
X140142051Y-96534130D01*
X140173115Y-96609126D01*
X140177529Y-96617789D01*
X140304022Y-96824208D01*
X140309734Y-96832070D01*
X140466969Y-97016169D01*
X140473830Y-97023030D01*
X140657929Y-97180265D01*
X140665791Y-97185977D01*
X140872210Y-97312470D01*
X140880873Y-97316884D01*
X140955869Y-97347948D01*
X140967213Y-97349631D01*
X140970000Y-97338507D01*
X142240000Y-97338507D01*
X142242786Y-97349631D01*
X142254130Y-97347948D01*
X142329126Y-97316884D01*
X142337789Y-97312470D01*
X142544208Y-97185977D01*
X142552070Y-97180265D01*
X142736169Y-97023030D01*
X142743030Y-97016169D01*
X142900265Y-96832070D01*
X142905977Y-96824208D01*
X143032470Y-96617789D01*
X143036884Y-96609126D01*
X143067948Y-96534130D01*
X143069631Y-96522786D01*
X143058507Y-96520000D01*
X142256326Y-96520000D01*
X142243450Y-96523450D01*
X142240000Y-96536326D01*
X142240000Y-97338507D01*
X140970000Y-97338507D01*
X140970000Y-96536326D01*
X140966549Y-96523450D01*
X140953674Y-96520000D01*
X140151493Y-96520000D01*
X140140368Y-96522786D01*
X133223500Y-96522786D01*
X133223500Y-95818453D01*
X133208567Y-95619185D01*
X133149252Y-95359308D01*
X133105257Y-95247213D01*
X140140368Y-95247213D01*
X140151493Y-95250000D01*
X140953674Y-95250000D01*
X140966549Y-95246549D01*
X140970000Y-95233674D01*
X142240000Y-95233674D01*
X142243450Y-95246549D01*
X142256326Y-95250000D01*
X143058507Y-95250000D01*
X143069631Y-95247213D01*
X143067948Y-95235869D01*
X143036884Y-95160873D01*
X143032470Y-95152210D01*
X142905977Y-94945791D01*
X142900265Y-94937929D01*
X142743030Y-94753830D01*
X142736169Y-94746969D01*
X142552070Y-94589734D01*
X142544208Y-94584022D01*
X142337789Y-94457529D01*
X142329126Y-94453115D01*
X142254130Y-94422051D01*
X142242786Y-94420368D01*
X142240000Y-94431493D01*
X142240000Y-95233674D01*
X140970000Y-95233674D01*
X140970000Y-94431493D01*
X140967213Y-94420368D01*
X140955869Y-94422051D01*
X140880873Y-94453115D01*
X140872210Y-94457529D01*
X140665791Y-94584022D01*
X140657929Y-94589734D01*
X140473830Y-94746969D01*
X140466969Y-94753830D01*
X140309734Y-94937929D01*
X140304022Y-94945791D01*
X140177529Y-95152210D01*
X140173115Y-95160873D01*
X140142051Y-95235869D01*
X140140368Y-95247213D01*
X133105257Y-95247213D01*
X133062071Y-95137177D01*
X133053500Y-95091876D01*
X133053500Y-94739672D01*
X133053500Y-94736362D01*
X133046989Y-94675799D01*
X132995889Y-94538796D01*
X132908261Y-94421739D01*
X132791204Y-94334111D01*
X132782896Y-94331012D01*
X132782894Y-94331011D01*
X132661463Y-94285719D01*
X132661458Y-94285717D01*
X132654201Y-94283011D01*
X132646497Y-94282182D01*
X132646494Y-94282182D01*
X132596924Y-94276853D01*
X132596918Y-94276852D01*
X132593638Y-94276500D01*
X132590328Y-94276500D01*
X132232241Y-94276500D01*
X132178440Y-94264220D01*
X132100761Y-94226811D01*
X132100750Y-94226806D01*
X132096581Y-94224799D01*
X132092152Y-94223433D01*
X132092150Y-94223432D01*
X131846293Y-94147595D01*
X131846287Y-94147593D01*
X131841863Y-94146229D01*
X131837283Y-94145538D01*
X131837276Y-94145537D01*
X131582865Y-94107191D01*
X131582863Y-94107190D01*
X131578280Y-94106500D01*
X131311720Y-94106500D01*
X131307137Y-94107190D01*
X131307134Y-94107191D01*
X131052723Y-94145537D01*
X131052713Y-94145539D01*
X131048137Y-94146229D01*
X131043715Y-94147592D01*
X131043706Y-94147595D01*
X130797850Y-94223431D01*
X130797835Y-94223436D01*
X130793419Y-94224799D01*
X130789245Y-94226808D01*
X130789240Y-94226811D01*
X130711561Y-94264220D01*
X130657759Y-94276500D01*
X130296362Y-94276500D01*
X130293082Y-94276852D01*
X130293075Y-94276853D01*
X130243505Y-94282182D01*
X130243500Y-94282182D01*
X130235799Y-94283011D01*
X130228543Y-94285717D01*
X130228536Y-94285719D01*
X130107105Y-94331011D01*
X130107099Y-94331013D01*
X130098796Y-94334111D01*
X130091698Y-94339423D01*
X130091695Y-94339426D01*
X129988835Y-94416426D01*
X129988831Y-94416429D01*
X129981739Y-94421739D01*
X129976429Y-94428831D01*
X129976426Y-94428835D01*
X129899426Y-94531695D01*
X129899423Y-94531698D01*
X129894111Y-94538796D01*
X129891013Y-94547099D01*
X129891011Y-94547105D01*
X129845719Y-94668536D01*
X129845717Y-94668543D01*
X129843011Y-94675799D01*
X129842182Y-94683500D01*
X129842182Y-94683505D01*
X129836853Y-94733075D01*
X129836500Y-94736362D01*
X129836500Y-94739672D01*
X129836500Y-95091876D01*
X129827928Y-95137178D01*
X129742446Y-95354979D01*
X129742442Y-95354991D01*
X129740748Y-95359308D01*
X129739716Y-95363828D01*
X129739713Y-95363839D01*
X129682465Y-95614661D01*
X129682463Y-95614668D01*
X129681433Y-95619185D01*
X129666500Y-95818453D01*
X129666500Y-95820770D01*
X129666500Y-98589459D01*
X129657061Y-98636912D01*
X129630181Y-98677140D01*
X129243484Y-99063835D01*
X129195728Y-99093551D01*
X129139757Y-99099111D01*
X129087088Y-99079374D01*
X129048557Y-99038398D01*
X129032092Y-98984618D01*
X129018274Y-98782595D01*
X128961702Y-98510357D01*
X128868588Y-98248358D01*
X128740665Y-98001478D01*
X128580317Y-97774317D01*
X128390531Y-97571105D01*
X128387249Y-97568435D01*
X128387246Y-97568432D01*
X128178133Y-97398307D01*
X128178130Y-97398305D01*
X128174841Y-97395629D01*
X128171217Y-97393425D01*
X128171214Y-97393423D01*
X127940885Y-97253357D01*
X127940883Y-97253356D01*
X127937267Y-97251157D01*
X127915011Y-97241490D01*
X127686114Y-97142065D01*
X127686104Y-97142061D01*
X127682233Y-97140380D01*
X127678161Y-97139239D01*
X127418570Y-97066504D01*
X127418557Y-97066501D01*
X127414491Y-97065362D01*
X127410304Y-97064786D01*
X127410292Y-97064784D01*
X127143224Y-97028076D01*
X127143211Y-97028075D01*
X127139027Y-97027500D01*
X126860973Y-97027500D01*
X126856789Y-97028075D01*
X126856775Y-97028076D01*
X126589707Y-97064784D01*
X126589692Y-97064786D01*
X126585509Y-97065362D01*
X126581445Y-97066500D01*
X126581429Y-97066504D01*
X126321838Y-97139239D01*
X126321833Y-97139240D01*
X126317767Y-97140380D01*
X126313900Y-97142059D01*
X126313885Y-97142065D01*
X126066616Y-97249470D01*
X126066611Y-97249472D01*
X126062733Y-97251157D01*
X126059122Y-97253352D01*
X126059114Y-97253357D01*
X125828785Y-97393423D01*
X125828774Y-97393430D01*
X125825159Y-97395629D01*
X125821875Y-97398300D01*
X125821866Y-97398307D01*
X125612753Y-97568432D01*
X125612742Y-97568441D01*
X125609469Y-97571105D01*
X125606581Y-97574196D01*
X125606578Y-97574200D01*
X125422578Y-97771216D01*
X125422570Y-97771225D01*
X125419683Y-97774317D01*
X125417240Y-97777777D01*
X125417235Y-97777784D01*
X125261781Y-97998012D01*
X125261777Y-97998017D01*
X125259335Y-98001478D01*
X125257389Y-98005232D01*
X125257385Y-98005240D01*
X125133361Y-98244595D01*
X125133356Y-98244604D01*
X125131412Y-98248358D01*
X125129995Y-98252343D01*
X125129991Y-98252354D01*
X125039719Y-98506356D01*
X125039715Y-98506368D01*
X125038298Y-98510357D01*
X125037435Y-98514507D01*
X125037434Y-98514513D01*
X124982589Y-98778438D01*
X124982587Y-98778449D01*
X124981726Y-98782595D01*
X124981437Y-98786819D01*
X124981436Y-98786827D01*
X124967907Y-98984616D01*
X124962751Y-99060000D01*
X124963040Y-99064225D01*
X124981357Y-99332024D01*
X124981726Y-99337405D01*
X124982587Y-99341552D01*
X124982589Y-99341561D01*
X125028339Y-99561720D01*
X125038298Y-99609643D01*
X125039716Y-99613635D01*
X125039719Y-99613643D01*
X125128787Y-99864256D01*
X125131412Y-99871642D01*
X125133359Y-99875400D01*
X125133361Y-99875404D01*
X125243139Y-100087266D01*
X125259335Y-100118522D01*
X125419683Y-100345683D01*
X125422576Y-100348781D01*
X125422578Y-100348783D01*
X125476402Y-100406415D01*
X125609469Y-100548895D01*
X125612750Y-100551564D01*
X125612753Y-100551567D01*
X125655992Y-100586744D01*
X125825159Y-100724371D01*
X126062733Y-100868843D01*
X126317767Y-100979620D01*
X126507904Y-101032894D01*
X126581429Y-101053495D01*
X126581431Y-101053495D01*
X126585509Y-101054638D01*
X126589707Y-101055215D01*
X126794933Y-101083423D01*
X126860973Y-101092500D01*
X126865210Y-101092500D01*
X126915458Y-101092500D01*
X126971753Y-101106015D01*
X127015776Y-101143615D01*
X127037931Y-101197102D01*
X127033389Y-101254818D01*
X127003139Y-101304181D01*
X125767567Y-102539752D01*
X125764229Y-102542968D01*
X125696014Y-102606263D01*
X125696004Y-102606272D01*
X125692612Y-102609421D01*
X125689723Y-102613043D01*
X125689718Y-102613049D01*
X125631707Y-102685791D01*
X125628750Y-102689360D01*
X125568034Y-102759914D01*
X125568028Y-102759921D01*
X125565010Y-102763429D01*
X125562548Y-102767346D01*
X125562542Y-102767355D01*
X125550933Y-102785829D01*
X125542897Y-102797155D01*
X125529303Y-102814203D01*
X125526414Y-102817826D01*
X125524099Y-102821835D01*
X125524096Y-102821840D01*
X125477565Y-102902433D01*
X125475173Y-102906402D01*
X125455024Y-102938470D01*
X125410011Y-102981027D01*
X125350029Y-102996500D01*
X122941907Y-102996500D01*
X122877479Y-102978448D01*
X122860885Y-102968357D01*
X122860883Y-102968356D01*
X122857267Y-102966157D01*
X122835011Y-102956490D01*
X122606114Y-102857065D01*
X122606104Y-102857061D01*
X122602233Y-102855380D01*
X122598161Y-102854239D01*
X122338570Y-102781504D01*
X122338557Y-102781501D01*
X122334491Y-102780362D01*
X122330304Y-102779786D01*
X122330292Y-102779784D01*
X122063224Y-102743076D01*
X122063211Y-102743075D01*
X122059027Y-102742500D01*
X121780973Y-102742500D01*
X121776789Y-102743075D01*
X121776775Y-102743076D01*
X121509707Y-102779784D01*
X121509692Y-102779786D01*
X121505509Y-102780362D01*
X121501445Y-102781500D01*
X121501429Y-102781504D01*
X121241838Y-102854239D01*
X121241833Y-102854240D01*
X121237767Y-102855380D01*
X121233900Y-102857059D01*
X121233885Y-102857065D01*
X120986616Y-102964470D01*
X120986611Y-102964472D01*
X120982733Y-102966157D01*
X120979122Y-102968352D01*
X120979114Y-102968357D01*
X120748785Y-103108423D01*
X120748774Y-103108430D01*
X120745159Y-103110629D01*
X120741875Y-103113300D01*
X120741866Y-103113307D01*
X120532753Y-103283432D01*
X120532742Y-103283441D01*
X120529469Y-103286105D01*
X120526581Y-103289196D01*
X120526578Y-103289200D01*
X120342578Y-103486216D01*
X120342570Y-103486225D01*
X120339683Y-103489317D01*
X120337240Y-103492777D01*
X120337235Y-103492784D01*
X120181781Y-103713012D01*
X120181777Y-103713017D01*
X120179335Y-103716478D01*
X120177389Y-103720232D01*
X120177385Y-103720240D01*
X120125098Y-103821150D01*
X120079428Y-103870050D01*
X120015000Y-103888102D01*
X119950572Y-103870050D01*
X119904902Y-103821150D01*
X119852614Y-103720240D01*
X119850665Y-103716478D01*
X119690317Y-103489317D01*
X119500531Y-103286105D01*
X119497249Y-103283435D01*
X119497246Y-103283432D01*
X119288133Y-103113307D01*
X119288130Y-103113305D01*
X119284841Y-103110629D01*
X119281217Y-103108425D01*
X119281214Y-103108423D01*
X119050885Y-102968357D01*
X119050883Y-102968356D01*
X119047267Y-102966157D01*
X119025011Y-102956490D01*
X118796114Y-102857065D01*
X118796104Y-102857061D01*
X118792233Y-102855380D01*
X118788161Y-102854239D01*
X118528570Y-102781504D01*
X118528557Y-102781501D01*
X118524491Y-102780362D01*
X118520304Y-102779786D01*
X118520292Y-102779784D01*
X118253224Y-102743076D01*
X118253211Y-102743075D01*
X118249027Y-102742500D01*
X117970973Y-102742500D01*
X117966789Y-102743075D01*
X117966775Y-102743076D01*
X117699707Y-102779784D01*
X117699692Y-102779786D01*
X117695509Y-102780362D01*
X117691445Y-102781500D01*
X117691429Y-102781504D01*
X117431838Y-102854239D01*
X117431833Y-102854240D01*
X117427767Y-102855380D01*
X117423900Y-102857059D01*
X117423885Y-102857065D01*
X117176616Y-102964470D01*
X117176611Y-102964472D01*
X117172733Y-102966157D01*
X117169122Y-102968352D01*
X117169114Y-102968357D01*
X116938785Y-103108423D01*
X116938774Y-103108430D01*
X116935159Y-103110629D01*
X116931875Y-103113300D01*
X116931866Y-103113307D01*
X116722753Y-103283432D01*
X116722742Y-103283441D01*
X116719469Y-103286105D01*
X116716581Y-103289196D01*
X116716578Y-103289200D01*
X116532578Y-103486216D01*
X116532570Y-103486225D01*
X116529683Y-103489317D01*
X116527240Y-103492777D01*
X116527235Y-103492784D01*
X116466372Y-103579008D01*
X116422116Y-103617598D01*
X116365068Y-103631500D01*
X114774932Y-103631500D01*
X114717884Y-103617598D01*
X114673628Y-103579008D01*
X114612764Y-103492784D01*
X114610317Y-103489317D01*
X114420531Y-103286105D01*
X114417249Y-103283435D01*
X114417246Y-103283432D01*
X114208133Y-103113307D01*
X114208130Y-103113305D01*
X114204841Y-103110629D01*
X114201217Y-103108425D01*
X114201214Y-103108423D01*
X113970885Y-102968357D01*
X113970883Y-102968356D01*
X113967267Y-102966157D01*
X113945011Y-102956490D01*
X113716114Y-102857065D01*
X113716104Y-102857061D01*
X113712233Y-102855380D01*
X113708161Y-102854239D01*
X113448570Y-102781504D01*
X113448557Y-102781501D01*
X113444491Y-102780362D01*
X113440304Y-102779786D01*
X113440292Y-102779784D01*
X113173224Y-102743076D01*
X113173211Y-102743075D01*
X113169027Y-102742500D01*
X112890973Y-102742500D01*
X112886789Y-102743075D01*
X112886775Y-102743076D01*
X112619707Y-102779784D01*
X112619692Y-102779786D01*
X112615509Y-102780362D01*
X112611445Y-102781500D01*
X112611429Y-102781504D01*
X112351838Y-102854239D01*
X112351833Y-102854240D01*
X112347767Y-102855380D01*
X112343900Y-102857059D01*
X112343885Y-102857065D01*
X112096616Y-102964470D01*
X112096611Y-102964472D01*
X112092733Y-102966157D01*
X112089122Y-102968352D01*
X112089114Y-102968357D01*
X111858785Y-103108423D01*
X111858774Y-103108430D01*
X111855159Y-103110629D01*
X111851875Y-103113300D01*
X111851866Y-103113307D01*
X111642753Y-103283432D01*
X111642742Y-103283441D01*
X111639469Y-103286105D01*
X111636581Y-103289196D01*
X111636578Y-103289200D01*
X111452578Y-103486216D01*
X111452570Y-103486225D01*
X111449683Y-103489317D01*
X111447240Y-103492777D01*
X111447235Y-103492784D01*
X111291781Y-103713012D01*
X111291777Y-103713017D01*
X111289335Y-103716478D01*
X111287389Y-103720232D01*
X111287385Y-103720240D01*
X111163361Y-103959595D01*
X111163356Y-103959604D01*
X111161412Y-103963358D01*
X111159995Y-103967343D01*
X111159991Y-103967354D01*
X111069719Y-104221356D01*
X111069715Y-104221368D01*
X111068298Y-104225357D01*
X111067435Y-104229507D01*
X111067434Y-104229513D01*
X111012589Y-104493438D01*
X111012587Y-104493449D01*
X111011726Y-104497595D01*
X111011437Y-104501819D01*
X111011436Y-104501827D01*
X110993124Y-104769540D01*
X110992751Y-104775000D01*
X105410500Y-104775000D01*
X105410500Y-100869476D01*
X112122447Y-100869476D01*
X112131536Y-100876430D01*
X112346738Y-100969906D01*
X112354691Y-100972732D01*
X112613163Y-101045153D01*
X112621442Y-101046873D01*
X112887357Y-101083423D01*
X112895792Y-101084000D01*
X113164208Y-101084000D01*
X113172642Y-101083423D01*
X113438557Y-101046873D01*
X113446836Y-101045153D01*
X113705308Y-100972732D01*
X113713261Y-100969906D01*
X113928462Y-100876430D01*
X113937551Y-100869476D01*
X117202447Y-100869476D01*
X117211536Y-100876430D01*
X117426738Y-100969906D01*
X117434691Y-100972732D01*
X117693163Y-101045153D01*
X117701442Y-101046873D01*
X117967357Y-101083423D01*
X117975792Y-101084000D01*
X118244208Y-101084000D01*
X118252642Y-101083423D01*
X118518557Y-101046873D01*
X118526836Y-101045153D01*
X118785308Y-100972732D01*
X118793261Y-100969906D01*
X119008462Y-100876430D01*
X119017551Y-100869476D01*
X119011646Y-100859671D01*
X118121541Y-99969567D01*
X118109999Y-99962903D01*
X118098456Y-99969567D01*
X117208352Y-100859671D01*
X117202447Y-100869476D01*
X113937551Y-100869476D01*
X113931646Y-100859671D01*
X113041541Y-99969567D01*
X113029999Y-99962903D01*
X113018456Y-99969567D01*
X112128352Y-100859671D01*
X112122447Y-100869476D01*
X105410500Y-100869476D01*
X105410500Y-99064225D01*
X111001560Y-99064225D01*
X111019878Y-99332024D01*
X111021028Y-99340390D01*
X111075639Y-99603193D01*
X111077921Y-99611338D01*
X111167808Y-99864256D01*
X111171172Y-99872002D01*
X111215231Y-99957031D01*
X111222642Y-99965603D01*
X111232301Y-99959672D01*
X112120431Y-99071542D01*
X112127095Y-99060000D01*
X113932903Y-99060000D01*
X113939567Y-99071542D01*
X114827697Y-99959672D01*
X114837357Y-99965603D01*
X114844767Y-99957031D01*
X114888822Y-99872011D01*
X114892192Y-99864252D01*
X114982078Y-99611338D01*
X114984360Y-99603193D01*
X115038971Y-99340390D01*
X115040121Y-99332024D01*
X115058440Y-99064225D01*
X116081560Y-99064225D01*
X116099878Y-99332024D01*
X116101028Y-99340390D01*
X116155639Y-99603193D01*
X116157921Y-99611338D01*
X116247808Y-99864256D01*
X116251172Y-99872002D01*
X116295231Y-99957031D01*
X116302642Y-99965603D01*
X116312301Y-99959672D01*
X117200431Y-99071542D01*
X117207095Y-99060000D01*
X119012903Y-99060000D01*
X119019567Y-99071542D01*
X119907697Y-99959672D01*
X119918350Y-99966213D01*
X119922231Y-99964625D01*
X119960845Y-99937398D01*
X120020242Y-99929845D01*
X120076253Y-99951005D01*
X120115820Y-99995944D01*
X120179335Y-100118522D01*
X120339683Y-100345683D01*
X120342576Y-100348781D01*
X120342578Y-100348783D01*
X120396402Y-100406415D01*
X120529469Y-100548895D01*
X120532750Y-100551564D01*
X120532753Y-100551567D01*
X120575992Y-100586744D01*
X120745159Y-100724371D01*
X120982733Y-100868843D01*
X121237767Y-100979620D01*
X121427904Y-101032894D01*
X121501429Y-101053495D01*
X121501431Y-101053495D01*
X121505509Y-101054638D01*
X121509707Y-101055215D01*
X121714933Y-101083423D01*
X121780973Y-101092500D01*
X122054790Y-101092500D01*
X122059027Y-101092500D01*
X122334491Y-101054638D01*
X122602233Y-100979620D01*
X122857267Y-100868843D01*
X123094841Y-100724371D01*
X123310531Y-100548895D01*
X123500317Y-100345683D01*
X123660665Y-100118522D01*
X123788588Y-99871642D01*
X123881702Y-99609643D01*
X123938274Y-99337405D01*
X123957249Y-99060000D01*
X123938274Y-98782595D01*
X123881702Y-98510357D01*
X123788588Y-98248358D01*
X123660665Y-98001478D01*
X123500317Y-97774317D01*
X123310531Y-97571105D01*
X123307249Y-97568435D01*
X123307246Y-97568432D01*
X123098133Y-97398307D01*
X123098130Y-97398305D01*
X123094841Y-97395629D01*
X123091217Y-97393425D01*
X123091214Y-97393423D01*
X122860885Y-97253357D01*
X122860883Y-97253356D01*
X122857267Y-97251157D01*
X122835011Y-97241490D01*
X122606114Y-97142065D01*
X122606104Y-97142061D01*
X122602233Y-97140380D01*
X122598161Y-97139239D01*
X122338570Y-97066504D01*
X122338557Y-97066501D01*
X122334491Y-97065362D01*
X122330304Y-97064786D01*
X122330292Y-97064784D01*
X122063224Y-97028076D01*
X122063211Y-97028075D01*
X122059027Y-97027500D01*
X121780973Y-97027500D01*
X121776789Y-97028075D01*
X121776775Y-97028076D01*
X121509707Y-97064784D01*
X121509692Y-97064786D01*
X121505509Y-97065362D01*
X121501445Y-97066500D01*
X121501429Y-97066504D01*
X121241838Y-97139239D01*
X121241833Y-97139240D01*
X121237767Y-97140380D01*
X121233900Y-97142059D01*
X121233885Y-97142065D01*
X120986616Y-97249470D01*
X120986611Y-97249472D01*
X120982733Y-97251157D01*
X120979122Y-97253352D01*
X120979114Y-97253357D01*
X120748785Y-97393423D01*
X120748774Y-97393430D01*
X120745159Y-97395629D01*
X120741875Y-97398300D01*
X120741866Y-97398307D01*
X120532753Y-97568432D01*
X120532742Y-97568441D01*
X120529469Y-97571105D01*
X120526581Y-97574196D01*
X120526578Y-97574200D01*
X120342578Y-97771216D01*
X120342570Y-97771225D01*
X120339683Y-97774317D01*
X120337240Y-97777777D01*
X120337235Y-97777784D01*
X120181781Y-97998012D01*
X120181777Y-97998017D01*
X120179335Y-98001478D01*
X120177391Y-98005228D01*
X120177381Y-98005246D01*
X120115819Y-98124055D01*
X120076253Y-98168993D01*
X120020243Y-98190153D01*
X119960847Y-98182601D01*
X119922232Y-98155374D01*
X119918350Y-98153785D01*
X119907698Y-98160325D01*
X119019567Y-99048457D01*
X119012903Y-99060000D01*
X117207095Y-99060000D01*
X117200431Y-99048457D01*
X116312299Y-98160324D01*
X116302641Y-98154395D01*
X116295231Y-98162966D01*
X116251176Y-98247989D01*
X116247806Y-98255748D01*
X116157921Y-98508661D01*
X116155639Y-98516806D01*
X116101028Y-98779609D01*
X116099878Y-98787975D01*
X116081560Y-99055775D01*
X116081560Y-99064225D01*
X115058440Y-99064225D01*
X115058440Y-99055775D01*
X115040121Y-98787975D01*
X115038971Y-98779609D01*
X114984360Y-98516806D01*
X114982078Y-98508661D01*
X114892192Y-98255747D01*
X114888822Y-98247988D01*
X114844767Y-98162967D01*
X114837357Y-98154395D01*
X114827698Y-98160325D01*
X113939567Y-99048457D01*
X113932903Y-99060000D01*
X112127095Y-99060000D01*
X112120431Y-99048457D01*
X111232299Y-98160324D01*
X111222641Y-98154395D01*
X111215231Y-98162966D01*
X111171176Y-98247989D01*
X111167806Y-98255748D01*
X111077921Y-98508661D01*
X111075639Y-98516806D01*
X111021028Y-98779609D01*
X111019878Y-98787975D01*
X111001560Y-99055775D01*
X111001560Y-99064225D01*
X105410500Y-99064225D01*
X105410500Y-99060099D01*
X105410541Y-99060000D01*
X105410383Y-99059617D01*
X105410215Y-99059547D01*
X105410000Y-99057350D01*
X105410000Y-97250522D01*
X112122447Y-97250522D01*
X112128353Y-97260328D01*
X113018456Y-98150431D01*
X113029999Y-98157095D01*
X113041541Y-98150431D01*
X113931646Y-97260327D01*
X113937551Y-97250522D01*
X117202447Y-97250522D01*
X117208353Y-97260328D01*
X118098456Y-98150431D01*
X118109999Y-98157095D01*
X118121541Y-98150431D01*
X119011646Y-97260327D01*
X119017551Y-97250522D01*
X119008462Y-97243569D01*
X118793261Y-97150093D01*
X118785308Y-97147267D01*
X118526836Y-97074846D01*
X118518557Y-97073126D01*
X118252642Y-97036576D01*
X118244208Y-97036000D01*
X117975792Y-97036000D01*
X117967357Y-97036576D01*
X117701442Y-97073126D01*
X117693163Y-97074846D01*
X117434691Y-97147267D01*
X117426738Y-97150093D01*
X117211536Y-97243569D01*
X117202447Y-97250522D01*
X113937551Y-97250522D01*
X113928462Y-97243569D01*
X113713261Y-97150093D01*
X113705308Y-97147267D01*
X113446836Y-97074846D01*
X113438557Y-97073126D01*
X113172642Y-97036576D01*
X113164208Y-97036000D01*
X112895792Y-97036000D01*
X112887357Y-97036576D01*
X112621442Y-97073126D01*
X112613163Y-97074846D01*
X112354691Y-97147267D01*
X112346738Y-97150093D01*
X112131536Y-97243569D01*
X112122447Y-97250522D01*
X105410000Y-97250522D01*
X105410000Y-90173751D01*
X105410226Y-90166264D01*
X105428066Y-89871323D01*
X105429871Y-89856458D01*
X105482457Y-89569510D01*
X105486041Y-89554972D01*
X105572828Y-89276461D01*
X105578135Y-89262470D01*
X105697865Y-88996442D01*
X105704823Y-88983183D01*
X105855749Y-88733520D01*
X105864236Y-88721224D01*
X106044166Y-88491560D01*
X106054081Y-88480369D01*
X106260369Y-88274081D01*
X106271560Y-88264166D01*
X106501224Y-88084236D01*
X106513520Y-88075749D01*
X106763183Y-87924822D01*
X106776442Y-87917865D01*
X107042470Y-87798135D01*
X107056461Y-87792828D01*
X107334972Y-87706040D01*
X107349510Y-87702457D01*
X107636462Y-87649870D01*
X107651319Y-87648066D01*
X107946263Y-87630226D01*
X107953751Y-87630000D01*
X120647350Y-87630000D01*
X120649547Y-87630215D01*
G37*
G04 #@! TD.AperFunction*
M02*
