G04 #@! TF.GenerationSoftware,KiCad,Pcbnew,(7.0.0-0)*
G04 #@! TF.CreationDate,2023-03-10T18:04:30-08:00*
G04 #@! TF.ProjectId,RX7 Headlight Control,52583720-4865-4616-946c-696768742043,rev?*
G04 #@! TF.SameCoordinates,Original*
G04 #@! TF.FileFunction,Soldermask,Bot*
G04 #@! TF.FilePolarity,Negative*
%FSLAX46Y46*%
G04 Gerber Fmt 4.6, Leading zero omitted, Abs format (unit mm)*
G04 Created by KiCad (PCBNEW (7.0.0-0)) date 2023-03-10 18:04:30*
%MOMM*%
%LPD*%
G01*
G04 APERTURE LIST*
%ADD10C,0.150000*%
%ADD11R,2.200000X2.200000*%
%ADD12O,2.200000X2.200000*%
%ADD13R,2.550000X2.550000*%
%ADD14C,1.650000*%
%ADD15C,2.550000*%
%ADD16C,3.048000*%
G04 APERTURE END LIST*
D10*
X145415000Y-100330000D02*
X148590000Y-100330000D01*
X148590000Y-100330000D02*
X148590000Y-107950000D01*
X148590000Y-107950000D02*
X145415000Y-107950000D01*
X145415000Y-107950000D02*
X145415000Y-100330000D01*
G36*
X145415000Y-100330000D02*
G01*
X148590000Y-100330000D01*
X148590000Y-107950000D01*
X145415000Y-107950000D01*
X145415000Y-100330000D01*
G37*
X105410000Y-100330000D02*
X108585000Y-100330000D01*
X108585000Y-100330000D02*
X108585000Y-107950000D01*
X108585000Y-107950000D02*
X105410000Y-107950000D01*
X105410000Y-107950000D02*
X105410000Y-100330000D01*
G36*
X105410000Y-100330000D02*
G01*
X108585000Y-100330000D01*
X108585000Y-107950000D01*
X105410000Y-107950000D01*
X105410000Y-100330000D01*
G37*
D11*
X131444999Y-95884999D03*
D12*
X141604999Y-95884999D03*
D11*
X141604999Y-116839999D03*
D12*
X141604999Y-106679999D03*
D11*
X141604999Y-99694999D03*
D12*
X131444999Y-99694999D03*
D13*
X122069999Y-111759999D03*
D14*
X130470000Y-114160000D03*
D15*
X134470000Y-114160000D03*
X134470000Y-109360000D03*
D14*
X130470000Y-109360000D03*
D16*
X127000000Y-99060000D03*
X121920000Y-99060000D03*
X130810000Y-104775000D03*
X135890000Y-104775000D03*
X118110000Y-99060000D03*
X113030000Y-99060000D03*
X118110000Y-104775000D03*
X113030000Y-104775000D03*
X127000000Y-104775000D03*
X121920000Y-104775000D03*
M02*
