G04 #@! TF.GenerationSoftware,KiCad,Pcbnew,(7.0.0-0)*
G04 #@! TF.CreationDate,2023-03-10T18:04:30-08:00*
G04 #@! TF.ProjectId,RX7 Headlight Control,52583720-4865-4616-946c-696768742043,rev?*
G04 #@! TF.SameCoordinates,Original*
G04 #@! TF.FileFunction,Profile,NP*
%FSLAX46Y46*%
G04 Gerber Fmt 4.6, Leading zero omitted, Abs format (unit mm)*
G04 Created by KiCad (PCBNEW (7.0.0-0)) date 2023-03-10 18:04:30*
%MOMM*%
%LPD*%
G01*
G04 APERTURE LIST*
G04 #@! TA.AperFunction,Profile*
%ADD10C,0.100000*%
G04 #@! TD*
G04 APERTURE END LIST*
D10*
X114300000Y-121920000D02*
X114300000Y-120650000D01*
X147320000Y-86360000D02*
X133350000Y-86360000D01*
X106680000Y-121920000D02*
X114300000Y-121920000D01*
X133350000Y-87630000D02*
X120650000Y-87630000D01*
X149860000Y-88900000D02*
G75*
G03*
X147320000Y-86360000I-2540000J0D01*
G01*
X147320000Y-121920000D02*
G75*
G03*
X149860000Y-119380000I0J2540000D01*
G01*
X132080000Y-121920000D02*
X132080000Y-120650000D01*
X121920000Y-120650000D02*
X121920000Y-121920000D01*
X133350000Y-86360000D02*
X133350000Y-87630000D01*
X105410000Y-99060000D02*
X104140000Y-99060000D01*
X132080000Y-120650000D02*
X139700000Y-120650000D01*
X104140000Y-109220000D02*
X105410000Y-109220000D01*
X139700000Y-121920000D02*
X147320000Y-121920000D01*
X121920000Y-121920000D02*
X132080000Y-121920000D01*
X114300000Y-120650000D02*
X121920000Y-120650000D01*
X104140000Y-99060000D02*
X104140000Y-88900000D01*
X149860000Y-99060000D02*
X148590000Y-99060000D01*
X106680000Y-86360000D02*
X120650000Y-86360000D01*
X139700000Y-120650000D02*
X139700000Y-121920000D01*
X104140000Y-119380000D02*
G75*
G03*
X106680000Y-121920000I2540000J0D01*
G01*
X120650000Y-87630000D02*
X120650000Y-86360000D01*
X148590000Y-109220000D02*
X149860000Y-109220000D01*
X148590000Y-99060000D02*
X148590000Y-109220000D01*
X104140000Y-119380000D02*
X104140000Y-109220000D01*
X106680000Y-86360000D02*
G75*
G03*
X104140000Y-88900000I0J-2540000D01*
G01*
X105410000Y-109220000D02*
X105410000Y-99060000D01*
X149860000Y-88900000D02*
X149860000Y-99060000D01*
X149860000Y-119380000D02*
X149860000Y-109220000D01*
M02*
